<svg xmlns="http://www.w3.org/2000/svg"  viewBox="0 0 64 64" width="64px" height="64px"><path fill="#dbf2ff" d="M61,32.04c0.016-1.78-0.675-3.448-1.931-4.704l-2.479-2.479l-12.425,12.28l7.206,7.222l7.697-7.688 C60.301,35.432,60.992,33.788,61,32.04z"/><path fill="#8b8e98" d="M36.672,4.931C35.424,3.683,33.764,3,32,3s-3.416,0.683-4.664,1.931l-7.681,7.681l12.361,12.376 l12.345-12.36L36.672,4.931z"/><path fill="#ace3ff" d="M51.378,44.355L36.664,59.069C35.424,60.317,33.764,61,32,61s-3.416-0.683-4.664-1.931l-14.691-14.69 l19.37-19.394L51.378,44.355z"/><path fill="#7bbeeb" d="M44.363 12.63L32.018 24.982 44.16 37.139 56.592 24.866z"/><path fill="#6e727a" d="M19.653,12.614L4.931,27.336C3.683,28.584,3,30.236,3,32s0.683,3.416,1.931,4.664l7.718,7.718 l19.37-19.395L19.653,12.614z"/><path fill="#8d6c9f" d="M24.151 51.582c.391.391 1.023.391 1.414 0l1.414-1.414c.391-.391.391-1.023 0-1.414-.391-.391-1.023-.391-1.414 0l-1.414 1.414C23.76 50.559 23.76 51.191 24.151 51.582zM27.687 55.118c.391.391 1.023.391 1.414 0l1.414-1.414c.391-.391.391-1.023 0-1.414-.391-.391-1.023-.391-1.414 0l-1.414 1.414C27.296 54.095 27.296 54.727 27.687 55.118z"/><path fill="#8d6c9f" d="M62,32.046c0.018-2.042-0.772-3.965-2.224-5.417L37.378,4.223C35.944,2.79,34.034,2,32,2 c-2.03,0-3.938,0.79-5.371,2.224L4.224,26.629C2.79,28.063,2,29.971,2,32s0.79,3.937,2.224,5.371l22.405,22.405 C28.062,61.21,29.97,62,32,62c2.038,0,3.946-0.791,5.371-2.224l22.408-22.399C61.202,35.944,61.99,34.051,62,32.046z M28.043,5.638 C29.099,4.582,30.504,4,32,4c1.5,0,2.908,0.582,3.965,1.637l6.985,6.992l-2.005,2.007c-0.391,0.391-0.391,1.023,0,1.414 c0.391,0.39,1.023,0.391,1.414-0.001l2.004-2.005l10.806,10.812l-11.001,10.87L33.431,24.981l5.724-5.727 c0.391-0.391,0.391-1.024,0-1.415c-0.391-0.39-1.023-0.39-1.414,0l-5.724,5.728l0,0l0,0L21.07,12.609L28.043,5.638z M4,32 c0-1.495,0.582-2.9,1.638-3.957l14.016-14.015l10.948,10.957L12.645,42.964l-7.007-7.007C4.582,34.9,4,33.495,4,32z M35.955,58.364 C34.906,59.419,33.502,60,32,60c-1.496,0-2.901-0.582-3.957-1.638L14.062,44.381l17.956-17.979L49.96,44.36L35.955,58.364z M51.378,42.94l-5.795-5.798l11.008-10.87l1.771,1.77c1.069,1.07,1.651,2.486,1.638,3.988v0.004 c-0.007,1.478-0.589,2.874-1.638,3.929L51.378,42.94z"/><path fill="#8d6c9f" d="M18.495 41.683l-1.414 1.414c-.391.391-.391 1.023 0 1.414.391.391 1.023.391 1.414 0l1.414-1.414c.391-.391.391-1.023 0-1.414C19.518 41.292 18.885 41.292 18.495 41.683zM22.03 45.218l-1.414 1.414c-.391.391-.391 1.023 0 1.414.391.391 1.023.391 1.414 0l1.414-1.414c.391-.391.391-1.023 0-1.414C23.053 44.827 22.421 44.827 22.03 45.218zM32.637 55.825l-1.414 1.414c-.391.391-.391 1.023 0 1.414.391.391 1.023.391 1.414 0l1.414-1.414c.391-.391.391-1.023 0-1.414C33.66 55.434 33.028 55.434 32.637 55.825z"/></svg>