<svg xmlns="http://www.w3.org/2000/svg"  viewBox="0 0 64 64" width="64px" height="64px"><radialGradient id="7mNCJ47gmiVrO46B61PzVa" cx="32" cy="32" r="30.017" gradientUnits="userSpaceOnUse"><stop offset="0" stop-color="#e9ce8e"/><stop offset="0" stop-color="#e9ce8e"/><stop offset=".241" stop-color="#f1dca9"/><stop offset=".521" stop-color="#f9e8c0"/><stop offset=".782" stop-color="#fdefcf"/><stop offset="1" stop-color="#fff2d4"/></radialGradient><path fill="url(#7mNCJ47gmiVrO46B61PzVa)" d="M63,58c0,1.65-1.35,3-3,3H12c-1.65,0-3-1.35-3-3c0-1.65,1.35-3,3-3h20.5	c1.375,0,2.5-1.125,2.5-2.5S33.875,50,32.5,50H4c-1.65,0-3-1.35-3-3c0-1.65,1.35-3,3-3h2.5C7.875,44,9,42.875,9,41.5	S7.875,39,6.5,39H6c-1.65,0-3-1.35-3-3c0-1.65,1.35-3,3-3h17V20H7c-1.65,0-3-1.35-3-3c0-1.65,1.35-3,3-3h4.5	c1.375,0,2.5-1.125,2.5-2.5S12.875,9,11.5,9H11C9.35,9,8,7.65,8,6c0-1.65,1.35-3,3-3h41c1.65,0,3,1.35,3,3c0,1.65-1.35,3-3,3h-5	c-1.1,0-2,0.9-2,2c0,1.1,0.9,2,2,2h10c1.65,0,3,1.35,3,3c0,1.65-1.35,3-3,3h-2.5c-1.375,0-2.5,1.125-2.5,2.5s1.125,2.5,2.5,2.5H59	c1.65,0,3,1.35,3,3c0,1.65-1.35,3-3,3H47v14h12c1.65,0,3,1.35,3,3c0,1.65-1.35,3-3,3h-0.5c-1.375,0-2.5,1.125-2.5,2.5	s1.125,2.5,2.5,2.5H60C61.65,55,63,56.35,63,58z M7,58L7,58c0-1.65-1.35-3-3-3h0c-1.65,0-3,1.35-3,3v0c0,1.65,1.35,3,3,3h0	C5.65,61,7,59.65,7,58z"/><path fill="#717171" d="M50.081,11h-8.226c-1.136,0-2.175,0.642-2.683,1.658l-0.618,1.236 C38.214,14.572,37.521,15,36.764,15h-0.528c-0.758,0-1.45,0.428-1.789,1.106l-0.553,1.106c-0.369,0.737-1.42,0.737-1.789,0 l-2.276-4.553C29.321,11.642,28.282,11,27.146,11h-7.961c-1.302,0-2.455,0.84-2.855,2.079L7.468,40.548 c-0.294,0.912-0.135,1.91,0.429,2.686l6.204,8.531C14.666,52.541,15.568,53,16.528,53h10.209c1.339,0,2.517-0.888,2.885-2.176 l0.678-2.374C30.545,47.592,31.33,47,32.223,47h1.84c0.594,0,1.156,0.264,1.536,0.72l3.501,4.201C39.67,52.605,40.515,53,41.405,53 h8.152c1.423,0,2.65-0.999,2.938-2.392l5.305-25.64c0.13-0.629,0.055-1.282-0.214-1.865l-4.781-10.36 C52.314,11.68,51.251,11,50.081,11z"/><linearGradient id="7mNCJ47gmiVrO46B61PzVb" x1="23" x2="23" y1="13" y2="16" gradientUnits="userSpaceOnUse"><stop offset="0" stop-color="#4cda80"/><stop offset=".996" stop-color="#3db679"/><stop offset="1" stop-color="#3db679"/></linearGradient><path fill="url(#7mNCJ47gmiVrO46B61PzVb)" d="M18.544,14.368l-0.105,0.316C18.223,15.331,18.705,16,19.387,16h6.171 c0.861,0,1.625-0.551,1.897-1.368l0.105-0.316C27.777,13.669,27.295,13,26.613,13h-6.171C19.581,13,18.816,13.551,18.544,14.368z"/><linearGradient id="7mNCJ47gmiVrO46B61PzVc" x1="30.597" x2="30.597" y1="18" y2="42" gradientUnits="userSpaceOnUse"><stop offset="0" stop-color="#6be096"/><stop offset=".478" stop-color="#66d494"/><stop offset="1" stop-color="#5fc290"/></linearGradient><path fill="url(#7mNCJ47gmiVrO46B61PzVc)" d="M18.401,18h9.122c0.707,0,1.191,0.715,0.928,1.371l-0.903,2.257 C27.286,22.285,27.77,23,28.477,23h18.291c0.635,0,1.109,0.584,0.979,1.206L44,42H34l3.204-10.412 C37.599,30.302,36.638,29,35.292,29h-0.571c-0.43,0-0.813,0.275-0.949,0.684L32,35h-7l1.561-4.684 C26.777,29.669,26.295,29,25.613,29h-1.892c-0.43,0-0.813,0.275-0.949,0.684l-0.316,0.949C22.184,31.449,21.419,32,20.558,32 h-3.171c-0.683,0-1.165-0.669-0.949-1.316l0.123-0.368C16.777,29.669,16.295,29,15.613,29h-1.185c-0.694,0-1.177-0.69-0.94-1.342 l3.033-8.342C16.809,18.526,17.56,18,18.401,18z"/><linearGradient id="7mNCJ47gmiVrO46B61PzVd" x1="39.668" x2="39.668" y1="17" y2="21" gradientUnits="userSpaceOnUse"><stop offset="0" stop-color="#4cda80"/><stop offset=".996" stop-color="#3db679"/><stop offset="1" stop-color="#3db679"/></linearGradient><path fill="url(#7mNCJ47gmiVrO46B61PzVd)" d="M36.618,21h4.82c0.918,0,1.718-0.625,1.94-1.515l0.311-1.243 C43.847,17.611,43.37,17,42.719,17h-4.483c-0.758,0-1.45,0.428-1.789,1.106l-0.724,1.447C35.391,20.218,35.875,21,36.618,21z"/><linearGradient id="7mNCJ47gmiVrO46B61PzVe" x1="45.05" x2="45.05" y1="13" y2="21" gradientUnits="userSpaceOnUse"><stop offset="0" stop-color="#4cda80"/><stop offset=".996" stop-color="#3db679"/><stop offset="1" stop-color="#3db679"/></linearGradient><path fill="url(#7mNCJ47gmiVrO46B61PzVe)" d="M40.447,14.106L40.447,14.106C40.242,14.517,40.541,15,41,15h4.613 c0.683,0,1.165,0.669,0.949,1.316l-1.106,3.319C45.231,20.307,45.731,21,46.438,21l0,0c0.918,0,1.718-0.625,1.94-1.515l1.311-5.243 C49.847,13.611,49.37,13,48.719,13h-6.483C41.479,13,40.786,13.428,40.447,14.106z"/><linearGradient id="7mNCJ47gmiVrO46B61PzVf" x1="18.046" x2="18.046" y1="34" y2="37" gradientUnits="userSpaceOnUse"><stop offset="0" stop-color="#4cda80"/><stop offset=".996" stop-color="#3db679"/><stop offset="1" stop-color="#3db679"/></linearGradient><path fill="url(#7mNCJ47gmiVrO46B61PzVf)" d="M17.442,34h2.171c0.683,0,1.165,0.669,0.949,1.316l-0.105,0.316 C20.184,36.449,19.419,37,18.558,37h-1.838c-0.847,0-1.444-0.829-1.177-1.632h0C15.816,34.551,16.581,34,17.442,34z"/><linearGradient id="7mNCJ47gmiVrO46B61PzVg" x1="14.307" x2="14.307" y1="31" y2="42" gradientUnits="userSpaceOnUse"><stop offset="0" stop-color="#4cda80"/><stop offset=".996" stop-color="#3db679"/><stop offset="1" stop-color="#3db679"/></linearGradient><path fill="url(#7mNCJ47gmiVrO46B61PzVg)" d="M19.561,40.316L19,42H9l3.761-10.342C12.904,31.263,13.28,31,13.7,31h0 c0.629,0,1.064,0.628,0.843,1.217l-2.037,5.432C12.262,38.303,12.745,39,13.443,39h5.17C19.295,39,19.777,39.669,19.561,40.316z"/><linearGradient id="7mNCJ47gmiVrO46B61PzVh" x1="41.567" x2="41.567" y1="51" y2="42" gradientUnits="userSpaceOnUse"><stop offset="0" stop-color="#ff8b67"/><stop offset=".847" stop-color="#ffa76a"/><stop offset="1" stop-color="#ffad6b"/><stop offset="1" stop-color="#ffad6b"/></linearGradient><path fill="url(#7mNCJ47gmiVrO46B61PzVh)" d="M34,42l6.399,8.228C40.778,50.715,41.361,51,41.978,51h6.153c0.799,0,1.275-0.89,0.832-1.555 L44,42H34z"/><linearGradient id="7mNCJ47gmiVrO46B61PzVi" x1="16.567" x2="16.567" y1="51" y2="42" gradientUnits="userSpaceOnUse"><stop offset="0" stop-color="#ff8b67"/><stop offset=".847" stop-color="#ffa76a"/><stop offset="1" stop-color="#ffad6b"/><stop offset="1" stop-color="#ffad6b"/></linearGradient><path fill="url(#7mNCJ47gmiVrO46B61PzVi)" d="M9,42l6.399,8.228C15.778,50.715,16.361,51,16.978,51h6.153c0.799,0,1.275-0.89,0.832-1.555 L19,42H9z"/><linearGradient id="7mNCJ47gmiVrO46B61PzVj" x1="29.5" x2="29.5" y1="45" y2="35" gradientUnits="userSpaceOnUse"><stop offset="0" stop-color="#ff8b67"/><stop offset=".847" stop-color="#ffa76a"/><stop offset="1" stop-color="#ffad6b"/><stop offset="1" stop-color="#ffad6b"/></linearGradient><path fill="url(#7mNCJ47gmiVrO46B61PzVj)" d="M25,35h7l1,2l-0.756,3.781c-0.156,0.78,0.004,1.59,0.446,2.252L34,45h-1.868 c-0.703,0-1.354-0.369-1.715-0.971L25,35z"/></svg>